<mxfile host="app.diagrams.net" modified="2023-09-03T13:17:20.485Z" agent="Mozilla/5.0 (Macintosh; Intel Mac OS X 10_15_7) AppleWebKit/537.36 (KHTML, like Gecko) Chrome/114.0.0.0 Safari/537.36" version="21.7.2" etag="aA8xJAAiuaMWQ1SbXd-1" type="github">
  <diagram name="Page-1" id="Br3yWHglHpIE3k_njOuc">
    <mxGraphModel>
      <root>
        <mxCell id="0" />
        <mxCell id="1" parent="0" />
      </root>
    </mxGraphModel>
  </diagram>
</mxfile>
